<?xml version="1.0" encoding="utf-8"?>
<!-- Generator: Adobe Illustrator 23.0.0, SVG Export Plug-In . SVG Version: 6.00 Build 0)  -->
<svg version="1.1" id="find" xmlns="http://www.w3.org/2000/svg" xmlns:xlink="http://www.w3.org/1999/xlink" x="0px" y="0px"
	 viewBox="0 0 1024 1024" style="enable-background:new 0 0 1024 1024;" xml:space="preserve">
<style type="text/css">
	.st0{fill:#FFFFFF;}
	.st1{fill-rule:evenodd;clip-rule:evenodd;}
</style>
<g id="bg">
	<g>
		<path class="st0" d="M510,72C220.3,72,70,222.3,70,512c0,289.7,150.3,440,440,440c289.7,0,440-150.3,440-440
			C950,222.3,799.7,72,510,72z"/>
	</g>
</g>
<g id="find_1_">
	<g>
		<path class="st1" d="M279.9,503.4c0,134.1,109.9,243.8,244.1,243.8c70.8,0,134.3-30.5,178.2-78L358,325.4
			C310.4,370.5,279.9,432.7,279.9,503.4z M504.5,293.7h-2.4v32.9c2.4,1.2,3.7,1.2,3.7,1.2c111.1,0,201.4,90.2,201.4,201.1v8.5h33
			V529C740.1,399.8,635.1,293.7,504.5,293.7z M675.4,538.8v-8.5c0-93.9-75.7-169.4-169.7-169.4h-2.4v32.9h2.4
			c75.7,0,136.7,61,136.7,136.5v8.5H675.4z"/>
	</g>
</g>
</svg>
