<?xml version="1.0" standalone="no"?><!DOCTYPE svg PUBLIC "-//W3C//DTD SVG 1.1//EN" "http://www.w3.org/Graphics/SVG/1.1/DTD/svg11.dtd"><svg t="1565340329781" class="icon" viewBox="0 0 1024 1024" version="1.1" xmlns="http://www.w3.org/2000/svg" p-id="30711" xmlns:xlink="http://www.w3.org/1999/xlink" width="200" height="200"><defs><style type="text/css"></style></defs><path d="M903.808 12.288H102.4c-56.32 0-101.888 46.08-101.888 102.4l-0.512 879.232c0 15.488 18.688 23.168 29.568 12.288l169.984-169.984c3.2-3.2 7.68-5.12 12.288-5.12H903.808c65.792 0 119.68-53.888 119.68-119.68V131.968c-0.128-65.792-53.888-119.68-119.68-119.68z" fill="#00BDFF" p-id="30712"></path><path d="M560.256 636.672c0 4.608-1.792 8.96-5.12 12.288-3.2 3.2-7.68 5.12-12.288 5.12h-76.288c-4.608 0-8.96-1.792-12.288-5.12-3.2-3.2-5.12-7.68-5.12-12.288v-69.504c0-9.6 7.808-17.28 17.28-17.28h76.288c9.6 0 17.28 7.808 17.28 17.28l0.256 69.504zM605.568 407.296c-40.32 28.416-59.264 56.064-56.704 82.944 0 0.512 0.128 1.024 0.128 1.536 0 4.608-1.792 8.96-5.12 12.288-3.2 3.2-7.68 5.12-12.288 5.12h-55.936c-4.608 0-8.96-1.792-12.288-5.12-3.2-3.2-5.12-7.68-5.12-12.288v-7.552c-1.536-46.592 17.92-83.456 58.496-110.592 0.256-0.128 0.512-0.384 0.768-0.64 37.376-28.544 55.424-55.552 53.888-81.152-3.072-31.36-20.736-48.64-53.248-51.968-0.64-0.128-1.408-0.128-2.048-0.128-36.096 0.384-60.16 22.4-72.32 65.792-2.432 8.704-11.136 14.208-19.968 12.416l-70.4-13.824c-4.736-0.896-8.832-3.712-11.392-7.808-2.56-4.096-3.328-8.96-2.048-13.568 23.552-92.032 87.936-136.576 193.024-133.76 93.312 6.016 144.64 48.128 153.856 126.08 0 0.384 0.128 0.896 0.128 1.408 2.816 51.2-24.32 94.72-81.408 130.816z" fill="#FFFFFF" p-id="30713"></path></svg>