<?xml version="1.0" encoding="utf-8"?>
<!-- Generator: Adobe Illustrator 23.0.0, SVG Export Plug-In . SVG Version: 6.00 Build 0)  -->
<svg version="1.1" id="home" xmlns="http://www.w3.org/2000/svg" xmlns:xlink="http://www.w3.org/1999/xlink" x="0px" y="0px"
	 viewBox="0 0 1024 1024" style="enable-background:new 0 0 1024 1024;" xml:space="preserve">
<style type="text/css">
	.st0{fill:#8D9AB7;}
</style>
<g id="bg">
	<g>
		<path d="M512,72C222.3,72,72,222.3,72,512c0,289.7,150.3,440,440,440c289.7,0,440-150.3,440-440C952,222.3,801.7,72,512,72z"/>
	</g>
</g>
<g id="home_1_">
	<g>
		<path class="st0" d="M753.8,470L565,273.6c-11.7-12.2-27.4-18.9-44.2-18.9c-16.8,0-32.5,6.7-44.2,18.9L287.7,470
			c-19.5,20.3-17,37.8-13.8,45.1c2.3,5.2,10,19.5,32.4,19.5H334v151.1c0,34.3,24.7,66.6,59.7,66.6h80.4v-160
			c0-17.1-2.6-26.7,14.9-26.7h63.5c17.5,0,14.9,9.6,14.9,26.7v160h80.4c35,0,59.7-32.3,59.7-66.6V534.6h27.7
			c22.3,0,30.1-14.3,32.4-19.5C770.8,507.9,773.3,490.3,753.8,470z"/>
	</g>
</g>
</svg>
