<?xml version="1.0" encoding="utf-8"?>
<!-- Generator: Adobe Illustrator 23.0.0, SVG Export Plug-In . SVG Version: 6.00 Build 0)  -->
<svg version="1.1" id="mine" xmlns="http://www.w3.org/2000/svg" xmlns:xlink="http://www.w3.org/1999/xlink" x="0px" y="0px"
	 viewBox="0 0 1024 1024" style="enable-background:new 0 0 1024 1024;" xml:space="preserve">
<style type="text/css">
	.st0{fill:#8D9AB7;}
</style>
<g id="bg">
	<g>
		<path d="M512,72C222.3,72,72,222.3,72,512c0,289.7,150.3,440,440,440c289.7,0,440-150.3,440-440C952,222.3,801.7,72,512,72z"/>
	</g>
</g>
<g id="person">
	<g>
		<path class="st0" d="M746.2,679.1c-21.5-83.4-86.7-149-169.5-171.5c42.9-23,71.3-69.2,69.2-121.9
			c-2.9-67.8-57.7-122.7-125.2-125.8c-75.9-3.4-138.2,57-138.2,131.8c0,50.1,28,93.7,69.2,116c-82.8,22.3-148,88.2-169.5,171.5
			c-7.9,30.4,15.1,59.9,46.5,59.9h371.1C731.1,739,753.8,709.5,746.2,679.1z"/>
	</g>
</g>
</svg>
