<?xml version="1.0" encoding="utf-8"?>
<!-- Generator: Adobe Illustrator 23.0.0, SVG Export Plug-In . SVG Version: 6.00 Build 0)  -->
<svg version="1.1" id="news" xmlns="http://www.w3.org/2000/svg" xmlns:xlink="http://www.w3.org/1999/xlink" x="0px" y="0px"
	 viewBox="0 0 1024 1024" style="enable-background:new 0 0 1024 1024;" xml:space="preserve">
<style type="text/css">
	.st0{fill:#FFFFFF;}
</style>
<g id="bg">
	<g>
		<path class="st0" d="M512,72C222.3,72,72,222.3,72,512c0,289.7,150.3,440,440,440s440-150.3,440-440C952,222.3,801.7,72,512,72z"
			/>
	</g>
</g>
<g id="news_1_">
	<g>
		<path d="M714.4,402.4v255.2c0,9.7-6.8,18.8-16.5,20.4c-12.3,1.9-22.9-7.4-22.9-19.4V343.2c0-21.7-17.8-39.5-39.4-39.5H360.1
			c-21.7,0-39.4,17.8-39.4,39.5V678c0,32.3,26.5,59.2,59.2,59.2H695c32.7,0,59.2-26.5,59.2-59.2V441.5
			C753.8,419.9,736,402.4,714.4,402.4z M596.4,628.8H399.5c-11,0-19.7-8.7-19.7-19.7s8.7-19.7,19.7-19.7h196.9
			c11,0,19.7,8.7,19.7,19.7S607,628.8,596.4,628.8z M596.4,530.2H399.5c-11,0-19.7-8.7-19.7-19.7c0-11,8.7-19.7,19.7-19.7h196.9
			c11,0,19.7,8.7,19.7,19.7C616.1,521.4,607,530.2,596.4,530.2z M596.4,431.8H399.5c-11,0-19.7-8.7-19.7-19.7
			c0-11,8.7-19.7,19.7-19.7h196.9c11,0,19.7,8.7,19.7,19.7C616.1,423.1,607,431.8,596.4,431.8z"/>
	</g>
</g>
</svg>
