<?xml version="1.0" encoding="utf-8"?>
<!-- Generator: Adobe Illustrator 23.0.0, SVG Export Plug-In . SVG Version: 6.00 Build 0)  -->
<svg version="1.1" id="tradeIcon" xmlns="http://www.w3.org/2000/svg" xmlns:xlink="http://www.w3.org/1999/xlink" x="0px" y="0px"
	 viewBox="0 0 1024 1024" style="enable-background:new 0 0 1024 1024;" xml:space="preserve">
<style type="text/css">
	.st0{fill-rule:evenodd;clip-rule:evenodd;fill:#8D9AB7;}
</style>
<g id="bg">
	<g>
		<path d="M512,72C222.3,72,72,222.3,72,512c0,289.7,150.3,440,440,440s440-150.3,440-440C952,222.3,801.7,72,512,72z"/>
	</g>
</g>
<g id="tradeIcon_1_">
	<g>
		<path class="st0" d="M444.3,681.2c28,0,50.8-22.7,50.8-50.8V325.8c0-28-22.7-50.8-50.8-50.8s-50.8,22.7-50.8,50.8v304.6
			C393.5,658.5,416.3,681.2,444.3,681.2z M579.7,664.3c28,0,50.8-22.7,50.8-50.8V410.5c0-28-22.7-50.8-50.8-50.8
			c-28,0-50.8,22.7-50.8,50.8v203.1C528.9,641.6,551.7,664.3,579.7,664.3z M715.1,664.3c28,0,50.8-22.7,50.8-50.8V495.1
			c0-28-22.7-50.8-50.8-50.8s-50.8,22.7-50.8,50.8v118.5C664.3,641.6,687,664.3,715.1,664.3z M308.9,664.3c28,0,50.8-22.7,50.8-50.8
			V495.1c0-28-22.7-50.8-50.8-50.8s-50.8,22.7-50.8,50.8v118.5C258.2,641.6,280.9,664.3,308.9,664.3z M765.8,715.1H258.2
			c-9.3,0-16.9,7.6-16.9,16.9c0,9.3,7.6,16.9,16.9,16.9h507.7c9.3,0,16.9-7.6,16.9-16.9C782.8,722.7,775.2,715.1,765.8,715.1z"/>
	</g>
</g>
</svg>
